<svg xmlns="http://www.w3.org/2000/svg" xmlns:xlink="http://www.w3.org/1999/xlink" width="1080" zoomAndPan="magnify" viewBox="0 0 810 809.999993" height="1080" preserveAspectRatio="xMidYMid meet" version="1.0"><defs><clipPath id="f3c363fd19"><path d="M 88 110 L 795 110 L 795 786.148438 L 88 786.148438 Z M 88 110 " clip-rule="nonzero"/></clipPath><clipPath id="3a949fa864"><path d="M 147 24.148438 L 640 24.148438 L 640 640 L 147 640 Z M 147 24.148438 " clip-rule="nonzero"/></clipPath></defs><path fill="#1f1e47" d="M 291.394531 420.695312 C 293.164062 424.554688 313.703125 424.726562 329.195312 433.652344 C 335.730469 437.425781 342.480469 443.496094 342.925781 451.679688 C 343.820312 468.144531 320.953125 488.007812 308.074219 496.398438 C 245.488281 537.199219 132.042969 562.457031 59.023438 547.722656 C 46.007812 545.097656 36.078125 536.960938 31.777344 524.449219 C 21.644531 494.984375 17.027344 464.996094 15.070312 433.773438 C 12.195312 387.867188 18.191406 342.996094 31.855469 298.910156 C 64.246094 194.429688 140.777344 107.789062 240.597656 62.714844 C 297.984375 36.796875 360.578125 24.988281 423.308594 27.691406 C 465.550781 29.511719 506.28125 37.191406 544.9375 53.328125 C 549.777344 55.347656 555.808594 60.625 554.980469 65.71875 C 553.863281 72.617188 548.027344 77.976562 542.421875 81.777344 C 508.882812 104.496094 482.308594 134.484375 463.777344 170.714844 C 445.46875 206.511719 433.519531 244.152344 426.566406 283.839844 C 423.417969 301.824219 417.683594 336.648438 406.945312 350.179688 C 397.722656 361.804688 384.613281 368.414062 370.367188 371.714844 L 335.289062 379.839844 C 320.804688 383.191406 308.109375 390.929688 298.730469 402.484375 C 296.308594 405.46875 289.714844 416.988281 291.394531 420.671875 Z M 291.394531 420.695312 " fill-opacity="1" fill-rule="nonzero"/><g clip-path="url(#f3c363fd19)"><path fill="#1f1e47" d="M 539.699219 561.238281 C 544.136719 566.839844 542.203125 574.246094 541.867188 580.523438 C 540.960938 597.417969 537.269531 613.078125 534.851562 629.636719 C 533.886719 636.25 531.488281 653.042969 536.042969 656.386719 C 542.203125 660.902344 566.542969 633.105469 571.40625 627.34375 C 600.046875 593.433594 617.238281 552.207031 619.210938 507.628906 C 620.277344 483.5 617.484375 461.21875 612.578125 437.859375 C 610.257812 426.789062 610.308594 415.640625 613.78125 405.226562 C 615.03125 401.492188 618.296875 396.652344 622.578125 397.148438 C 640.109375 399.179688 648.203125 456.949219 653.792969 471.796875 C 658.476562 484.238281 670.652344 453.984375 671.445312 452.367188 C 694.851562 404.898438 682.878906 357.078125 661.492188 311.164062 C 650.472656 287.5 642.453125 264.070312 636.984375 238.53125 C 632.308594 216.691406 628.421875 195.601562 627.945312 173.167969 C 627.785156 165.636719 626.792969 158.703125 627.675781 151.226562 C 628.515625 144.136719 629.125 106.878906 642.996094 110.65625 C 650.566406 112.71875 656.621094 117.910156 662.519531 122.9375 C 686.949219 143.746094 708.605469 166.527344 727.097656 193.0625 C 785.507812 276.878906 808.59375 383.175781 786.453125 483.316406 C 775.917969 530.957031 756.511719 577.238281 728.410156 616.769531 C 715.445312 635.007812 702.382812 651.414062 686.453125 667.339844 C 649.890625 703.882812 607.257812 733.429688 559.488281 753.605469 C 498.957031 779.164062 439.832031 789.320312 374.328125 785.296875 C 310.714844 781.394531 250.261719 763.019531 195.316406 730.871094 C 172.804688 717.699219 152.417969 703.183594 133.292969 685.46875 C 117.058594 670.425781 101.773438 655.414062 89.054688 637.375 C 88.476562 636.558594 88.929688 635.28125 88.699219 634.847656 C 88.296875 634.085938 89.652344 632.449219 91.078125 632.839844 L 128.890625 643.089844 C 174.035156 655.335938 247.949219 661.886719 294.90625 658.753906 C 328.082031 656.539062 360.054688 651.265625 392.011719 641.988281 C 423.382812 632.882812 452.242188 619.355469 479.902344 602.386719 C 498.449219 591.011719 514.597656 578.371094 530.273438 563.394531 C 532.484375 561.277344 537.03125 557.882812 539.695312 561.242188 Z M 539.699219 561.238281 " fill-opacity="1" fill-rule="nonzero"/></g><g clip-path="url(#3a949fa864)"><path fill="#1f1e47" d="M 213.207031 639.382812 C 205.421875 639.089844 147.941406 636.5625 147.886719 631.355469 C 147.878906 630.128906 148.921875 629.5625 150.328125 629.402344 L 190.921875 624.691406 C 253.066406 617.472656 321.261719 599.820312 375.835938 568.871094 C 413.378906 547.585938 445.605469 520.03125 472.144531 486.042969 C 474.910156 482.5 499.152344 452.019531 492.753906 449.019531 C 489.140625 452.335938 486.234375 455.308594 483.621094 458.777344 C 471.066406 475.46875 456.875 489.359375 440.484375 502.378906 C 406.882812 529.070312 366.796875 543.699219 323.761719 545.511719 C 318.816406 545.722656 312.277344 547.59375 310.105469 541.691406 C 311.585938 537.726562 316.972656 535.304688 320.546875 532.890625 C 367.695312 501.070312 412.214844 462.480469 437.957031 410.785156 C 446.289062 394.046875 452.375 377.699219 456.253906 359.378906 C 461.320312 335.425781 464.148438 311.804688 466.40625 287.277344 C 467.691406 273.335938 468.992188 260.328125 471.410156 246.761719 C 477.585938 212.117188 490.117188 180.824219 509.910156 151.847656 C 526.472656 127.585938 544.09375 105.476562 564.363281 84.308594 L 595.667969 51.632812 L 614.390625 33.808594 C 620.074219 28.398438 629.550781 20.292969 636.714844 26.253906 C 639.386719 28.472656 640.890625 33.453125 639.066406 37.140625 C 618.578125 78.496094 605.488281 115.136719 602.523438 162.058594 C 601.558594 177.304688 601.285156 192.144531 602.441406 207.425781 L 605.550781 248.558594 C 606.863281 265.953125 611.054688 316.671875 609.40625 330.992188 C 608.636719 337.691406 604.335938 384.273438 593.007812 381.617188 C 588.742188 380.621094 586.636719 374.414062 585.261719 370.554688 C 581.667969 360.519531 579.074219 350.957031 576.25 340.714844 C 574.460938 334.234375 567.78125 309.21875 561.464844 308.910156 C 559.976562 308.835938 557.421875 310.824219 556.835938 312.992188 C 551.433594 332.910156 546.96875 352.800781 537.625 371.433594 L 518.578125 409.4375 C 515.460938 415.660156 510.730469 420.730469 508.378906 427.566406 L 526.199219 464.628906 C 532.78125 478.324219 537.585938 492.382812 539.277344 507.496094 C 540.253906 516.207031 538.324219 524.109375 532.40625 530.597656 C 504.839844 560.816406 471.242188 584.03125 433.683594 600.382812 C 410.679688 610.398438 388.277344 618.253906 363.714844 623.984375 C 314.210938 635.53125 264.515625 641.289062 213.207031 639.386719 Z M 213.207031 639.382812 " fill-opacity="1" fill-rule="nonzero"/></g></svg>
